<svg width="48" height="48" viewBox="0 0 48 48" fill="none" xmlns="http://www.w3.org/2000/svg">
<rect width="48" height="48" rx="8" fill="#0D7172"/>
<path d="M23.2244 38.25C21.169 38.25 19.3371 37.8032 17.7286 36.9096C16.1499 35.9862 14.9137 34.7351 14.0201 33.1564C13.1265 31.5479 12.6797 29.7308 12.6797 27.7053C12.6797 25.65 13.1265 23.833 14.0201 22.2542C14.9137 20.6457 16.1499 19.3947 17.7286 18.5011C19.3371 17.5777 21.169 17.1159 23.2244 17.1159C25.2499 17.1159 27.052 17.5777 28.6308 18.5011C30.2095 19.3947 31.4456 20.6457 32.3393 22.2542C33.2329 23.833 33.6797 25.65 33.6797 27.7053C33.6797 29.7308 33.2329 31.5479 32.3393 33.1564C31.4456 34.7351 30.2095 35.9862 28.6308 36.9096C27.052 37.8032 25.2499 38.25 23.2244 38.25ZM23.1797 34.5415C24.4605 34.5415 25.5925 34.2585 26.5754 33.6925C27.5584 33.0968 28.3329 32.2777 28.8988 31.2351C29.4946 30.1925 29.7925 29.0159 29.7925 27.7053C29.7925 26.3649 29.4946 25.1883 28.8988 24.1755C28.3329 23.133 27.5584 22.3138 26.5754 21.7181C25.5925 21.1223 24.4605 20.8245 23.1797 20.8245C21.8988 20.8245 20.752 21.1223 19.7393 21.7181C18.7563 22.3138 17.9818 23.133 17.4159 24.1755C16.8797 25.1883 16.6116 26.3649 16.6116 27.7053C16.6116 29.0159 16.8797 30.1925 17.4159 31.2351C17.9818 32.2777 18.7563 33.0968 19.7393 33.6925C20.752 34.2585 21.8988 34.5415 23.1797 34.5415ZM14.0648 22.1202L24.6988 4.51595C25.1754 3.77127 25.801 3.39893 26.5754 3.39893C27.1414 3.39893 27.6031 3.56276 27.9605 3.89041C28.3478 4.18829 28.5861 4.59041 28.6754 5.0968C28.7946 5.57339 28.7052 6.04999 28.4073 6.52659L21.6605 17.6521L14.0648 22.1202Z" fill="white"/>
<path d="M11.4734 43.9301C10.6886 43.9301 9.98718 43.7536 9.36917 43.4004C8.76096 43.0374 8.28028 42.5519 7.92712 41.9437C7.58378 41.3256 7.41211 40.6291 7.41211 39.8542C7.41211 39.0596 7.58378 38.3533 7.92712 37.7352C8.27047 37.1172 8.74134 36.6365 9.33974 36.2932C9.93814 35.9401 10.6248 35.7635 11.3998 35.7635C11.9786 35.7635 12.5083 35.8763 12.989 36.1019C13.4697 36.3177 13.9013 36.6464 14.2839 37.0878C14.4212 37.2448 14.4703 37.4066 14.431 37.5734C14.3918 37.7402 14.2839 37.8873 14.1073 38.0148C13.97 38.1129 13.8179 38.1473 13.6511 38.1178C13.4844 38.0786 13.3323 37.9903 13.195 37.853C12.7143 37.3429 12.1159 37.0878 11.3998 37.0878C10.8995 37.0878 10.4581 37.2055 10.0755 37.441C9.69289 37.6666 9.39369 37.9854 9.17788 38.3974C8.96206 38.8094 8.85415 39.295 8.85415 39.8542C8.85415 40.3839 8.96206 40.8548 9.17788 41.2668C9.4035 41.6788 9.71251 42.0074 10.1049 42.2527C10.4973 42.4881 10.9535 42.6058 11.4734 42.6058C11.8167 42.6058 12.1159 42.5666 12.371 42.4881C12.6358 42.3998 12.8762 42.2674 13.092 42.0908C13.2489 41.9633 13.4108 41.8946 13.5776 41.8848C13.7443 41.8652 13.8915 41.9093 14.019 42.0172C14.1858 42.1546 14.279 42.3115 14.2986 42.4881C14.3182 42.6549 14.2594 42.8069 14.122 42.9443C13.4157 43.6015 12.5328 43.9301 11.4734 43.9301Z" fill="white"/>
<path d="M18.8394 43.9301C18.0448 43.9301 17.3434 43.7585 16.7351 43.4151C16.1269 43.062 15.6463 42.5813 15.2931 41.9731C14.9498 41.3551 14.7781 40.6488 14.7781 39.8542C14.7781 39.0498 14.9498 38.3435 15.2931 37.7352C15.6463 37.1172 16.1269 36.6365 16.7351 36.2932C17.3434 35.9401 18.0448 35.7635 18.8394 35.7635C19.6241 35.7635 20.3206 35.9401 20.9288 36.2932C21.537 36.6365 22.0128 37.1172 22.3562 37.7352C22.7093 38.3435 22.8859 39.0498 22.8859 39.8542C22.8859 40.6488 22.7142 41.3551 22.3709 41.9731C22.0275 42.5813 21.5518 43.062 20.9436 43.4151C20.3353 43.7585 19.6339 43.9301 18.8394 43.9301ZM18.8394 42.6058C19.3495 42.6058 19.8007 42.4881 20.1931 42.2527C20.5855 42.0172 20.8896 41.6935 21.1054 41.2815C21.331 40.8695 21.4439 40.3937 21.4439 39.8542C21.4439 39.3146 21.331 38.8388 21.1054 38.4268C20.8896 38.005 20.5855 37.6764 20.1931 37.441C19.8007 37.2055 19.3495 37.0878 18.8394 37.0878C18.3292 37.0878 17.878 37.2055 17.4856 37.441C17.0932 37.6764 16.7842 38.005 16.5586 38.4268C16.3329 38.8388 16.2201 39.3146 16.2201 39.8542C16.2201 40.3937 16.3329 40.8695 16.5586 41.2815C16.7842 41.6935 17.0932 42.0172 17.4856 42.2527C17.878 42.4881 18.3292 42.6058 18.8394 42.6058Z" fill="white"/>
<path d="M27.2974 43.9301C26.5323 43.9301 25.8407 43.7536 25.2227 43.4004C24.6145 43.0374 24.1289 42.547 23.7659 41.9289C23.4128 41.3109 23.2362 40.6144 23.2362 39.8395C23.2362 39.0645 23.398 38.3729 23.7218 37.7647C24.0553 37.1467 24.5065 36.6611 25.0755 36.3079C25.6445 35.945 26.287 35.7635 27.0031 35.7635C27.5819 35.7635 28.1166 35.8861 28.607 36.1313C29.0975 36.3668 29.5096 36.6905 29.8431 37.1025V33.1295C29.8431 32.9039 29.9118 32.7224 30.0491 32.5851C30.1962 32.4478 30.3777 32.3791 30.5935 32.3791C30.8192 32.3791 31.0006 32.4478 31.138 32.5851C31.2753 32.7224 31.344 32.9039 31.344 33.1295V39.8395C31.344 40.6144 31.1625 41.3109 30.7995 41.9289C30.4464 42.547 29.9657 43.0374 29.3575 43.4004C28.7493 43.7536 28.0626 43.9301 27.2974 43.9301ZM27.2974 42.6058C27.7977 42.6058 28.2441 42.4881 28.6365 42.2527C29.0289 42.0074 29.3379 41.6739 29.5635 41.2521C29.7891 40.8302 29.9019 40.3594 29.9019 39.8395C29.9019 39.3097 29.7891 38.8388 29.5635 38.4268C29.3379 38.0148 29.0289 37.6911 28.6365 37.4557C28.2441 37.2104 27.7977 37.0878 27.2974 37.0878C26.8069 37.0878 26.3606 37.2104 25.9584 37.4557C25.566 37.6911 25.2521 38.0148 25.0167 38.4268C24.791 38.8388 24.6782 39.3097 24.6782 39.8395C24.6782 40.3594 24.791 40.8302 25.0167 41.2521C25.2521 41.6739 25.566 42.0074 25.9584 42.2527C26.3606 42.4881 26.8069 42.6058 27.2974 42.6058Z" fill="white"/>
<path d="M36.3047 43.9301C35.4905 43.9301 34.7645 43.7585 34.1269 43.4151C33.4991 43.062 33.0037 42.5813 32.6407 41.9731C32.2876 41.3551 32.111 40.6488 32.111 39.8542C32.111 39.0498 32.2778 38.3435 32.6113 37.7352C32.9546 37.1172 33.4255 36.6365 34.0239 36.2932C34.6223 35.9401 35.309 35.7635 36.084 35.7635C36.8491 35.7635 37.5064 35.9351 38.0557 36.2785C38.6051 36.612 39.022 37.078 39.3065 37.6764C39.6008 38.265 39.7479 38.9468 39.7479 39.7217C39.7479 39.9081 39.6842 40.0651 39.5566 40.1926C39.4291 40.3103 39.2672 40.3692 39.071 40.3692H33.141V39.192H39.0269L38.4236 39.604C38.4138 39.1135 38.3157 38.677 38.1293 38.2944C37.9429 37.902 37.6781 37.593 37.3347 37.3674C36.9914 37.1418 36.5745 37.0289 36.084 37.0289C35.5248 37.0289 35.0441 37.1516 34.6419 37.3968C34.2495 37.6421 33.9503 37.9805 33.7443 38.4121C33.5383 38.8339 33.4353 39.3146 33.4353 39.8542C33.4353 40.3937 33.5579 40.8744 33.8032 41.2962C34.0484 41.718 34.3869 42.0516 34.8185 42.2968C35.2501 42.5421 35.7455 42.6647 36.3047 42.6647C36.6088 42.6647 36.9178 42.6107 37.2317 42.5028C37.5554 42.3851 37.8154 42.2527 38.0116 42.1055C38.1587 41.9976 38.3157 41.9437 38.4825 41.9437C38.659 41.9338 38.8111 41.9829 38.9386 42.0908C39.1054 42.2379 39.1937 42.3998 39.2035 42.5764C39.2133 42.753 39.1348 42.905 38.968 43.0325C38.6345 43.2974 38.2176 43.5132 37.7173 43.68C37.2268 43.8468 36.7559 43.9301 36.3047 43.9301Z" fill="white"/>
<path fill-rule="evenodd" clip-rule="evenodd" d="M8.99316 44.0435L8.98711 44.0399C8.27113 43.6126 7.69981 43.0359 7.2827 42.3176L7.27915 42.3115L7.27572 42.3053C6.86513 41.5662 6.66699 40.7432 6.66699 39.8542C6.66699 38.949 6.86361 38.1154 7.27572 37.3736C7.68244 36.6415 8.24762 36.062 8.96476 35.6495C9.68967 35.2227 10.5086 35.0188 11.3994 35.0188C12.0754 35.0188 12.7125 35.1508 13.2993 35.4251C13.8863 35.6898 14.4011 36.0868 14.8452 36.599C14.9053 36.6678 14.9601 36.7424 15.0074 36.8222C15.3761 36.3433 15.8295 35.9497 16.3647 35.6469C17.0997 35.2212 17.932 35.0188 18.8389 35.0188C19.7379 35.0188 20.5648 35.222 21.2984 35.6469C22.0238 36.0574 22.595 36.6351 23.0033 37.3674C23.0183 37.3934 23.0331 37.4196 23.0476 37.4458C23.053 37.4355 23.0585 37.4251 23.064 37.4148L23.065 37.4129L23.066 37.411C23.4573 36.6858 23.9955 36.1025 24.6784 35.6776C25.3735 35.2353 26.1553 35.0188 27.0027 35.0188C27.6885 35.0188 28.3361 35.1646 28.9343 35.4626C28.9896 35.4892 29.0442 35.5169 29.098 35.5455V33.1295C29.098 32.7409 29.2224 32.3582 29.5221 32.0585L29.5312 32.0494L29.5405 32.0407C29.8361 31.7648 30.2036 31.6344 30.5931 31.6344C30.9817 31.6344 31.3645 31.7589 31.6641 32.0585C31.9638 32.3582 32.0882 32.7409 32.0882 33.1295V37.156C32.4825 36.5259 33.0043 36.0202 33.6489 35.6496C34.3738 35.2227 35.1927 35.0188 36.0835 35.0188C36.9609 35.0188 37.7591 35.2164 38.4459 35.6444C39.1194 36.0544 39.6313 36.6292 39.9754 37.35C40.1473 37.6951 40.2745 38.0617 40.3596 38.4473H41.4373L40.4637 39.1123C40.4828 39.3112 40.4922 39.5145 40.4922 39.7217C40.4922 40.0982 40.3551 40.4468 40.0828 40.7192L40.0722 40.7297L40.0613 40.7398C39.778 41.0013 39.4277 41.1139 39.0706 41.1139H34.5731C34.7344 41.3304 34.9368 41.5078 35.1859 41.6493C35.4918 41.8231 35.8575 41.92 36.3042 41.92C36.517 41.92 36.7422 41.8828 36.9831 41.8007C37.26 41.6995 37.446 41.5985 37.5643 41.5098L37.5675 41.5074L37.5708 41.505C37.8276 41.3166 38.1293 41.2036 38.4613 41.1991C38.8083 41.1845 39.1427 41.2883 39.4192 41.5223L39.4251 41.5273L39.4309 41.5324C39.7064 41.7755 39.923 42.1112 39.9466 42.5351C39.9726 43.0034 39.7434 43.3743 39.426 43.6195C39.0118 43.9473 38.5154 44.1985 37.9546 44.3857C37.3988 44.5745 36.8475 44.6748 36.3042 44.6748C35.3823 44.6748 34.5325 44.4795 33.7734 44.0708L33.7674 44.0675L33.7614 44.0642C33.0224 43.6485 32.4315 43.0764 32.0008 42.3547L31.9972 42.3486L31.9937 42.3425C31.8865 42.155 31.7934 41.9614 31.7142 41.7623C31.6363 41.9469 31.5462 42.127 31.4435 42.3022C31.0273 43.0292 30.4563 43.6116 29.7387 44.0399L29.7348 44.0422L29.731 44.0444C28.9993 44.4692 28.1816 44.6748 27.297 44.6748C26.4123 44.6748 25.5917 44.4692 24.8528 44.047L24.8467 44.0435L24.8406 44.0399C24.1236 43.612 23.5489 43.0307 23.1233 42.3061L23.1211 42.3022L23.1189 42.2984C23.1054 42.2748 23.0922 42.2512 23.0792 42.2275C23.0604 42.2634 23.0412 42.2992 23.0214 42.3347L23.0202 42.3369L23.0189 42.3392C22.61 43.0636 22.039 43.6399 21.317 44.0591L21.3131 44.0614L21.3092 44.0636C20.5746 44.4783 19.7439 44.6748 18.8389 44.6748C17.934 44.6748 17.1032 44.4783 16.3686 44.0636L16.3647 44.0614L16.3608 44.0591C15.8264 43.7488 15.3726 43.3529 15.0032 42.875C14.9402 43.1047 14.8127 43.3062 14.6482 43.4708L14.6387 43.4803L14.6289 43.4894C13.7707 44.2879 12.7006 44.6748 11.4729 44.6748C10.5722 44.6748 9.74107 44.4709 8.99926 44.047L8.99316 44.0435ZM14.2095 41.2605C14.0908 40.8149 14.033 40.3451 14.033 39.8542C14.033 39.4982 14.0627 39.1539 14.1237 38.8227C13.9311 38.8776 13.7275 38.8876 13.5213 38.8512L13.5006 38.8475L13.4802 38.8427C13.1612 38.7677 12.8898 38.6014 12.668 38.3795L12.6602 38.3717L12.6526 38.3637C12.316 38.0065 11.9153 37.8325 11.3994 37.8325C11.0207 37.8325 10.7175 37.92 10.4653 38.0752L10.4594 38.0788L10.4533 38.0824C10.196 38.2341 9.99171 38.4478 9.8371 38.7429C9.68736 39.0288 9.5984 39.3912 9.5984 39.8542C9.5984 40.2775 9.68328 40.625 9.83395 40.9152C9.99775 41.212 10.2155 41.4426 10.4933 41.6175C10.7538 41.7723 11.0721 41.8611 11.4729 41.8611C11.7575 41.8611 11.9771 41.8288 12.1433 41.7788C12.319 41.7192 12.4766 41.6317 12.62 41.5144L12.621 41.5136L12.622 41.5128C12.8689 41.3122 13.168 41.1681 13.5119 41.1428C13.7574 41.1178 13.9947 41.1581 14.2095 41.2605ZM13.5771 41.8848C13.4104 41.8946 13.2485 41.9633 13.0916 42.0908C12.8757 42.2674 12.6354 42.3998 12.3705 42.4881C12.1155 42.5666 11.8163 42.6058 11.4729 42.6058C10.953 42.6058 10.4969 42.4881 10.1045 42.2527C9.71207 42.0074 9.40306 41.6788 9.17744 41.2668C8.96162 40.8548 8.85372 40.3839 8.85372 39.8542C8.85372 39.295 8.96162 38.8094 9.17744 38.3974C9.39325 37.9854 9.69245 37.6666 10.075 37.4409C10.4576 37.2055 10.8991 37.0878 11.3994 37.0878C12.1155 37.0878 12.7139 37.3428 13.1946 37.853C13.3319 37.9903 13.4839 38.0786 13.6507 38.1178C13.8175 38.1472 13.9695 38.1129 14.1069 38.0148C14.2834 37.8873 14.3914 37.7401 14.4306 37.5734C14.4698 37.4066 14.4208 37.2447 14.2834 37.0878C13.9009 36.6463 13.4692 36.3177 12.9886 36.1019C12.5079 35.8763 11.9781 35.7635 11.3994 35.7635C10.6244 35.7635 9.9377 35.94 9.3393 36.2932C8.7409 36.6365 8.27003 37.1172 7.92669 37.7352C7.58334 38.3533 7.41167 39.0596 7.41167 39.8542C7.41167 40.6291 7.58334 41.3256 7.92669 41.9436C8.27984 42.5519 8.76052 43.0374 9.36873 43.4004C9.98675 43.7536 10.6881 43.9301 11.4729 43.9301C12.5324 43.9301 13.4153 43.6015 14.1216 42.9442C14.2589 42.8069 14.3178 42.6549 14.2982 42.4881C14.2785 42.3115 14.1853 42.1546 14.0186 42.0172C13.8911 41.9093 13.7439 41.8652 13.5771 41.8848ZM22.6804 41.253C22.8171 40.8219 22.8855 40.3556 22.8855 39.8542C22.8855 39.8492 22.8855 39.8443 22.8854 39.8394C22.8841 39.3292 22.8114 38.8586 22.6676 38.4275C22.5863 38.1841 22.4824 37.9534 22.3557 37.7352C22.0124 37.1172 21.5366 36.6365 20.9284 36.2932C20.3202 35.94 19.6237 35.7635 18.8389 35.7635C18.0443 35.7635 17.3429 35.94 16.7347 36.2932C16.1265 36.6365 15.6458 37.1172 15.2927 37.7352C14.9493 38.3434 14.7777 39.0498 14.7777 39.8542C14.7777 40.6488 14.9493 41.3551 15.2927 41.9731C15.6458 42.5813 16.1265 43.062 16.7347 43.4151C17.3429 43.7585 18.0443 43.9301 18.8389 43.9301C19.6335 43.9301 20.3349 43.7585 20.9431 43.4151C21.5513 43.062 22.0271 42.5813 22.3704 41.9731C22.4971 41.7451 22.6004 41.505 22.6804 41.253ZM16.5581 38.4268C16.3325 38.8388 16.2197 39.3146 16.2197 39.8542C16.2197 40.3937 16.3325 40.8695 16.5581 41.2815C16.7838 41.6935 17.0928 42.0172 17.4852 42.2527C17.8776 42.4881 18.3288 42.6058 18.8389 42.6058C19.349 42.6058 19.8003 42.4881 20.1927 42.2527C20.5851 42.0172 20.8892 41.6935 21.105 41.2815C21.3306 40.8695 21.4434 40.3937 21.4434 39.8542C21.4434 39.3146 21.3306 38.8388 21.105 38.4268C20.8892 38.005 20.5851 37.6764 20.1927 37.4409C19.8003 37.2055 19.349 37.0878 18.8389 37.0878C18.3288 37.0878 17.8776 37.2055 17.4852 37.4409C17.0928 37.6764 16.7838 38.005 16.5581 38.4268ZM23.4576 41.2455C23.5383 41.4831 23.6409 41.7109 23.7655 41.9289C24.1284 42.5469 24.614 43.0374 25.2222 43.4004C25.8402 43.7536 26.5318 43.9301 27.297 43.9301C28.0622 43.9301 28.7489 43.7536 29.3571 43.4004C29.9653 43.0374 30.446 42.5469 30.7991 41.9289C31.1621 41.3109 31.3435 40.6144 31.3435 39.8394V33.1295C31.3435 32.9039 31.2749 32.7224 31.1375 32.5851C31.0002 32.4477 30.8187 32.3791 30.5931 32.3791C30.3773 32.3791 30.1958 32.4477 30.0487 32.5851C29.9113 32.7224 29.8426 32.9039 29.8426 33.1295V37.1025C29.6272 36.8363 29.3789 36.607 29.098 36.4145C28.944 36.3091 28.7802 36.2147 28.6066 36.1313C28.1161 35.8861 27.5815 35.7635 27.0027 35.7635C26.2866 35.7635 25.644 35.9449 25.0751 36.3079C24.5061 36.6611 24.0549 37.1466 23.7213 37.7647C23.6098 37.9741 23.5175 38.1935 23.4444 38.4227C23.3053 38.8591 23.2357 39.3314 23.2357 39.8394C23.2357 39.8443 23.2357 39.8493 23.2358 39.8542C23.2372 40.3502 23.3111 40.8139 23.4576 41.2455ZM28.636 37.4557C28.2436 37.2104 27.7973 37.0878 27.297 37.0878C26.8065 37.0878 26.3602 37.2104 25.958 37.4557C25.5656 37.6911 25.2517 38.0148 25.0162 38.4268C24.7906 38.8388 24.6778 39.3097 24.6778 39.8394C24.6778 40.3594 24.7906 40.8302 25.0162 41.2521C25.2517 41.6739 25.5656 42.0074 25.958 42.2527C26.3602 42.4881 26.8065 42.6058 27.297 42.6058C27.7973 42.6058 28.2436 42.4881 28.636 42.2527C29.0284 42.0074 29.3374 41.6739 29.5631 41.2521C29.7887 40.8302 29.9015 40.3594 29.9015 39.8394C29.9015 39.3097 29.7887 38.8388 29.5631 38.4268C29.3374 38.0148 29.0284 37.6911 28.636 37.4557ZM28.2471 41.6175C28.5227 41.444 28.7411 41.2098 28.9064 40.9008C29.0693 40.5963 29.1568 40.2477 29.1568 39.8394C29.1568 39.4185 29.0682 39.0735 28.9099 38.7845C28.746 38.4852 28.5288 38.2598 28.2529 38.0942L28.2471 38.0907L28.2414 38.0871C27.9769 37.9219 27.6695 37.8325 27.297 37.8325C26.9374 37.8325 26.6261 37.9204 26.3456 38.0915L26.3434 38.0928L26.3411 38.0942C26.0641 38.2604 25.8403 38.4878 25.6662 38.7903C25.5099 39.0781 25.4225 39.4214 25.4225 39.8394C25.4225 40.2451 25.5089 40.5918 25.6698 40.895C25.8444 41.2058 26.0682 41.4413 26.3435 41.6154C26.6231 41.7769 26.9355 41.8611 27.297 41.8611C27.6726 41.8611 27.9824 41.7749 28.2471 41.6175ZM37.7169 43.68C38.2172 43.5132 38.6341 43.2974 38.9676 43.0325C39.1344 42.905 39.2129 42.753 39.203 42.5764C39.1932 42.3998 39.1049 42.2379 38.9382 42.0908C38.8107 41.9829 38.6586 41.9338 38.482 41.9436C38.3153 41.9436 38.1583 41.9976 38.0112 42.1055C37.815 42.2527 37.555 42.3851 37.2313 42.5028C36.9174 42.6107 36.6084 42.6647 36.3042 42.6647C35.7451 42.6647 35.2497 42.542 34.8181 42.2968C34.3864 42.0516 34.048 41.718 33.8027 41.2962C33.7681 41.2366 33.7359 41.1758 33.7061 41.1139C33.5948 40.8821 33.5177 40.6338 33.475 40.3692L39.0706 40.3692C39.2668 40.3692 39.4287 40.3103 39.5562 40.1926C39.6837 40.0651 39.7475 39.9081 39.7475 39.7217C39.7475 39.6816 39.7471 39.6418 39.7463 39.6022C39.7381 39.1902 39.6873 38.8053 39.5938 38.4473C39.5226 38.1747 39.4267 37.9177 39.306 37.6764C39.0216 37.078 38.6046 36.612 38.0553 36.2785C37.5059 35.9351 36.8487 35.7635 36.0835 35.7635C35.3086 35.7635 34.6219 35.94 34.0235 36.2932C33.4251 36.6365 32.9542 37.1172 32.6109 37.7352C32.2773 38.3434 32.1106 39.0498 32.1106 39.8542C32.1106 40.6488 32.2871 41.3551 32.6403 41.9731C33.0032 42.5813 33.4986 43.062 34.1265 43.4151C34.7641 43.7585 35.49 43.9301 36.3042 43.9301C36.7555 43.9301 37.2264 43.8467 37.7169 43.68ZM33.727 38.4473C33.6182 38.6782 33.5398 38.9264 33.4918 39.192H38.3925C38.3736 39.0493 38.3461 38.9117 38.3102 38.7794C38.279 38.6648 38.2414 38.5541 38.1975 38.4473C38.1761 38.3954 38.1533 38.3444 38.1289 38.2944C37.9425 37.902 37.6776 37.593 37.3343 37.3674C36.9909 37.1417 36.574 37.0289 36.0835 37.0289C35.5244 37.0289 35.0437 37.1516 34.6415 37.3968C34.2491 37.642 33.9499 37.9805 33.7439 38.4121C33.7382 38.4238 33.7326 38.4355 33.727 38.4473ZM35.0327 38.0305C34.8566 38.1411 34.7078 38.2783 34.5848 38.4473H37.3661C37.2475 38.2541 37.1006 38.1049 36.9253 37.9897C36.7253 37.8583 36.4573 37.7736 36.0835 37.7736C35.6373 37.7736 35.2974 37.87 35.0327 38.0305ZM20.4485 40.9298L20.4518 40.9238C20.609 40.6368 20.6987 40.2874 20.6987 39.8542C20.6987 39.4209 20.609 39.0715 20.4518 38.7845L20.4468 38.7753L20.442 38.766C20.2873 38.4636 20.0781 38.2407 19.8095 38.0795C19.5458 37.9213 19.23 37.8325 18.8389 37.8325C18.4479 37.8325 18.132 37.9213 17.8683 38.0795C17.5967 38.2424 17.3799 38.4694 17.2148 38.7781L17.2131 38.7813L17.2113 38.7845C17.0541 39.0715 16.9644 39.4209 16.9644 39.8542C16.9644 40.2874 17.0541 40.6368 17.2113 40.9238C17.3752 41.2231 17.5924 41.4485 17.8683 41.6141C18.132 41.7723 18.4479 41.8611 18.8389 41.8611C19.23 41.8611 19.5458 41.7723 19.8095 41.6141C20.0826 41.4503 20.2919 41.2288 20.4453 40.9359L20.4485 40.9298Z" fill="#0D7172"/>
</svg>
