<svg width="85" height="50" viewBox="0 0 85 50" fill="none" xmlns="http://www.w3.org/2000/svg">
<path d="M27.055 43.3954C25.4616 43.3954 24.0375 43.0369 22.7827 42.3199C21.5478 41.5829 20.5718 40.597 19.8548 39.3621C19.1576 38.1073 18.8091 36.6931 18.8091 35.1196C18.8091 33.5063 19.1576 32.0722 19.8548 30.8174C20.5519 29.5626 21.5079 28.5866 22.7229 27.8895C23.9379 27.1725 25.3321 26.814 26.9056 26.814C28.0807 26.814 29.1563 27.043 30.1323 27.5011C31.1082 27.9393 31.9846 28.6066 32.7614 29.5029C33.0402 29.8215 33.1398 30.1502 33.0602 30.4888C32.9805 30.8274 32.7614 31.1261 32.4029 31.3851C32.124 31.5843 31.8153 31.654 31.4767 31.5942C31.1381 31.5145 30.8294 31.3353 30.5505 31.0564C29.5746 30.0207 28.3596 29.5029 26.9056 29.5029C25.8898 29.5029 24.9935 29.7419 24.2167 30.2199C23.4399 30.678 22.8324 31.3253 22.3943 32.1619C21.9561 32.9984 21.737 33.9843 21.737 35.1196C21.737 36.1952 21.9561 37.1512 22.3943 37.9878C22.8524 38.8243 23.4798 39.4916 24.2765 39.9895C25.0732 40.4675 25.9994 40.7065 27.055 40.7065C27.7521 40.7065 28.3596 40.6269 28.8775 40.4675C29.4152 40.2883 29.9032 40.0194 30.3414 39.6609C30.6601 39.4019 30.9887 39.2625 31.3273 39.2426C31.6659 39.2028 31.9647 39.2924 32.2236 39.5115C32.5622 39.7903 32.7514 40.109 32.7913 40.4675C32.8311 40.8061 32.7116 41.1148 32.4328 41.3937C30.9987 42.7282 29.2061 43.3954 27.055 43.3954Z" fill="#0D7172"/>
<path d="M42.0107 43.3954C40.3974 43.3954 38.9733 43.0469 37.7384 42.3497C36.5035 41.6327 35.5275 40.6567 34.8105 39.4218C34.1134 38.167 33.7648 36.733 33.7648 35.1196C33.7648 33.4864 34.1134 32.0523 34.8105 30.8174C35.5275 29.5626 36.5035 28.5866 37.7384 27.8895C38.9733 27.1725 40.3974 26.814 42.0107 26.814C43.6041 26.814 45.0183 27.1725 46.2532 27.8895C47.4881 28.5866 48.4541 29.5626 49.1512 30.8174C49.8682 32.0523 50.2268 33.4864 50.2268 35.1196C50.2268 36.733 49.8782 38.167 49.1811 39.4218C48.484 40.6567 47.518 41.6327 46.2831 42.3497C45.0482 43.0469 43.6241 43.3954 42.0107 43.3954ZM42.0107 40.7065C43.0465 40.7065 43.9627 40.4675 44.7594 39.9895C45.5561 39.5115 46.1735 38.8542 46.6117 38.0177C47.0698 37.1811 47.2989 36.2151 47.2989 35.1196C47.2989 34.0242 47.0698 33.0582 46.6117 32.2216C46.1735 31.3652 45.5561 30.6979 44.7594 30.2199C43.9627 29.7419 43.0465 29.5029 42.0107 29.5029C40.975 29.5029 40.0588 29.7419 39.2621 30.2199C38.4654 30.6979 37.838 31.3652 37.3799 32.2216C36.9218 33.0582 36.6927 34.0242 36.6927 35.1196C36.6927 36.2151 36.9218 37.1811 37.3799 38.0177C37.838 38.8542 38.4654 39.5115 39.2621 39.9895C40.0588 40.4675 40.975 40.7065 42.0107 40.7065Z" fill="#0D7172"/>
<path d="M59.1839 43.3954C57.6303 43.3954 56.2261 43.0369 54.9713 42.3199C53.7364 41.5829 52.7505 40.587 52.0135 39.3322C51.2965 38.0774 50.938 36.6633 50.938 35.0898C50.938 33.5163 51.2666 32.1121 51.9239 30.8772C52.6011 29.6224 53.5173 28.6364 54.6725 27.9194C55.8278 27.1825 57.1324 26.814 58.5863 26.814C59.7615 26.814 60.847 27.0629 61.8429 27.5609C62.8388 28.0389 63.6753 28.6962 64.3525 29.5327V21.4661C64.3525 21.008 64.4919 20.6395 64.7708 20.3607C65.0695 20.0818 65.438 19.9424 65.8762 19.9424C66.3343 19.9424 66.7028 20.0818 66.9816 20.3607C67.2605 20.6395 67.3999 21.008 67.3999 21.4661V35.0898C67.3999 36.6633 67.0314 38.0774 66.2945 39.3322C65.5774 40.587 64.6015 41.5829 63.3666 42.3199C62.1317 43.0369 60.7375 43.3954 59.1839 43.3954ZM59.1839 40.7065C60.1997 40.7065 61.1059 40.4675 61.9026 39.9895C62.6993 39.4916 63.3268 38.8144 63.7849 37.9579C64.243 37.1014 64.472 36.1454 64.472 35.0898C64.472 34.0142 64.243 33.0582 63.7849 32.2216C63.3268 31.3851 62.6993 30.7278 61.9026 30.2498C61.1059 29.7518 60.1997 29.5029 59.1839 29.5029C58.188 29.5029 57.2817 29.7518 56.4651 30.2498C55.6684 30.7278 55.031 31.3851 54.553 32.2216C54.0949 33.0582 53.8659 34.0142 53.8659 35.0898C53.8659 36.1454 54.0949 37.1014 54.553 37.9579C55.031 38.8144 55.6684 39.4916 56.4651 39.9895C57.2817 40.4675 58.188 40.7065 59.1839 40.7065Z" fill="#0D7172"/>
<path d="M77.472 43.3954C75.8189 43.3954 74.3449 43.0469 73.0503 42.3497C71.7756 41.6327 70.7697 40.6567 70.0328 39.4218C69.3157 38.167 68.9572 36.733 68.9572 35.1196C68.9572 33.4864 69.2958 32.0523 69.973 30.8174C70.6701 29.5626 71.6262 28.5866 72.8412 27.8895C74.0561 27.1725 75.4504 26.814 77.0239 26.814C78.5774 26.814 79.9119 27.1625 81.0273 27.8596C82.1427 28.5368 82.9892 29.4829 83.5668 30.6979C84.1643 31.893 84.4631 33.2773 84.4631 34.8507C84.4631 35.2292 84.3336 35.5479 84.0747 35.8068C83.8158 36.0458 83.4871 36.1653 83.0888 36.1653L71.0486 36.1653V33.7752L82.9992 33.7752L81.7742 34.6117C81.7543 33.6159 81.5551 32.7295 81.1767 31.9527C80.7983 31.156 80.2605 30.5286 79.5634 30.0705C78.8663 29.6124 78.0198 29.3833 77.0239 29.3833C75.8886 29.3833 74.9126 29.6323 74.096 30.1303C73.2993 30.6282 72.6918 31.3154 72.2735 32.1917C71.8552 33.0482 71.6461 34.0242 71.6461 35.1196C71.6461 36.2151 71.8951 37.1911 72.393 38.0475C72.891 38.904 73.5781 39.5812 74.4545 40.0791C75.3309 40.5771 76.3367 40.826 77.472 40.826C78.0895 40.826 78.7169 40.7165 79.3542 40.4974C80.0115 40.2584 80.5393 39.9895 80.9377 39.6907C81.2365 39.4716 81.5551 39.3621 81.8937 39.3621C82.2522 39.3422 82.561 39.4418 82.8199 39.6609C83.1585 39.9596 83.3378 40.2883 83.3577 40.6468C83.3776 41.0053 83.2183 41.314 82.8797 41.573C82.2025 42.1107 81.356 42.5489 80.3402 42.8875C79.3443 43.2261 78.3882 43.3954 77.472 43.3954Z" fill="#0D7172"/>
<path fill-rule="evenodd" clip-rule="evenodd" d="M15.1282 50C12.1795 50 9.55128 49.359 7.24359 48.0769C4.97863 46.7521 3.20513 44.9573 1.92308 42.6923C0.641026 40.3846 0 37.7778 0 34.8718C0 31.9231 0.641026 29.3162 1.92308 27.0513C1.96636 26.9734 2.0102 26.8961 2.0546 26.8193L1.98718 26.859L17.2436 1.60256C17.9274 0.534187 18.8248 0 19.9359 0C20.7479 0 21.4103 0.235042 21.9231 0.705127C22.4786 1.13248 22.8205 1.7094 22.9487 2.4359C23.1197 3.11966 22.9915 3.80342 22.5641 4.48718L13.297 19.7687C13.893 19.7092 14.5034 19.6795 15.1282 19.6795C18.0342 19.6795 20.6197 20.3419 22.8846 21.6667C24.5414 22.6044 25.9352 23.8166 27.066 25.3032C27.0126 25.3023 26.9592 25.3019 26.9055 25.3019C25.097 25.3019 23.4342 25.716 21.9623 26.5826C21.668 26.7519 21.3863 26.935 21.1173 27.1318C20.7501 26.8201 20.3563 26.5368 19.9359 26.2821C18.5256 25.4274 16.9017 25 15.0641 25C13.2265 25 11.5812 25.4274 10.1282 26.2821C8.71795 27.1368 7.60684 28.312 6.79487 29.8077C6.02564 31.2607 5.64103 32.9487 5.64103 34.8718C5.64103 36.7521 6.02564 38.4402 6.79487 39.9359C7.60684 41.4316 8.71795 42.6068 10.1282 43.4615C11.5812 44.2735 13.2265 44.6795 15.0641 44.6795C16.9017 44.6795 18.5256 44.2735 19.9359 43.4615C20.2598 43.2652 20.568 43.052 20.8604 42.8218C21.2197 43.1106 21.6023 43.3762 22.0078 43.6182L22.02 43.6255L22.0324 43.6326C23.4338 44.4334 24.9922 44.8476 26.6754 44.9013C25.619 46.1581 24.3554 47.2166 22.8846 48.0769C20.6197 49.359 18.0342 50 15.1282 50ZM29.2613 40.3206C29.1072 40.7688 28.9327 41.2073 28.7376 41.6363C28.5744 41.995 28.397 42.347 28.2051 42.6923C28.075 42.9223 27.9397 43.1474 27.7994 43.3676C27.5562 43.3861 27.3081 43.3954 27.0549 43.3954C25.4615 43.3954 24.0374 43.0368 22.7826 42.3198C22.5007 42.1516 22.2322 41.9703 21.9773 41.7761C22.4697 41.2289 22.9003 40.6155 23.2692 39.9359C23.3633 39.7712 23.4522 39.6042 23.536 39.4349C23.764 39.6386 24.0108 39.8234 24.2764 39.9894C25.0731 40.4675 25.9993 40.7065 27.0549 40.7065C27.752 40.7065 28.3595 40.6268 28.8774 40.4675C29.0083 40.4238 29.1363 40.3749 29.2613 40.3206ZM29.5157 30.206C28.7538 29.7372 27.8838 29.5028 26.9055 29.5028C25.8897 29.5028 24.9935 29.7418 24.2167 30.2198C24.0268 30.3318 23.8471 30.455 23.6775 30.5896C23.6518 30.5337 23.6255 30.478 23.5987 30.4227C23.497 30.2133 23.3872 30.0082 23.2692 29.8077C22.9561 29.2308 22.5984 28.7016 22.1963 28.2201C22.366 28.1037 22.5416 27.9935 22.7228 27.8895C23.9378 27.1724 25.3321 26.8139 26.9055 26.8139C27.323 26.8139 27.728 26.8428 28.1203 26.9006C28.1488 26.9506 28.1771 27.0008 28.2051 27.0513C28.4925 27.559 28.7477 28.084 28.9707 28.6261C29.181 29.1375 29.3627 29.6641 29.5157 30.206Z" fill="#0D7172"/>
</svg>
